<?xml version="1.0" standalone="no"?>
<!DOCTYPE svg PUBLIC "-//W3C//DTD SVG 20010904//EN"
 "http://www.w3.org/TR/2001/REC-SVG-20010904/DTD/svg10.dtd">
<svg version="1.0" xmlns="http://www.w3.org/2000/svg"
 width="72.000000pt" height="72.000000pt" viewBox="0 0 72.000000 72.000000"
 preserveAspectRatio="xMidYMid meet">
<metadata>
Created by potrace 1.14, written by Peter Selinger 2001-2017
</metadata>
<g transform="translate(0.000000,72.000000) scale(0.100000,-0.100000)"
fill="#000000" stroke="none">
<path d="M320 670 c0 -5 -13 -10 -30 -10 -16 0 -30 -4 -30 -10 0 -5 -7 -10
-15 -10 -20 0 -145 -125 -145 -145 0 -8 -4 -15 -10 -15 -5 0 -10 -13 -10 -30
0 -16 -4 -30 -10 -30 -6 0 -10 -30 -10 -70 0 -40 4 -70 10 -70 6 0 10 -13 10
-30 0 -16 5 -30 10 -30 6 0 10 -7 10 -15 0 -20 125 -145 145 -145 8 0 15 -4
15 -10 0 -5 14 -10 30 -10 17 0 30 -4 30 -10 0 -6 33 -10 80 -10 47 0 80 4 80
10 0 6 14 10 30 10 17 0 30 5 30 10 0 6 7 10 15 10 9 0 40 25 70 55 30 30 55
61 55 70 0 8 5 15 10 15 6 0 10 18 10 40 0 22 -3 40 -6 40 -3 0 -19 -13 -34
-30 -15 -16 -35 -30 -44 -30 -9 0 -16 -4 -16 -10 0 -5 -9 -10 -20 -10 -11 0
-20 -4 -20 -10 0 -6 -30 -10 -70 -10 -40 0 -70 4 -70 10 0 6 -7 10 -16 10 -19
0 -44 24 -44 42 0 8 -9 20 -20 28 -12 8 -20 26 -20 42 0 15 -4 28 -10 28 -6 0
-10 30 -10 70 0 40 4 70 10 70 6 0 10 11 10 25 0 29 59 95 85 95 8 0 15 5 15
10 0 6 23 10 50 10 28 0 50 2 50 5 0 3 -11 17 -25 30 -21 22 -33 25 -100 25
-43 0 -75 -4 -75 -10z"/>
<path d="M403 455 c-36 -38 -29 -60 42 -130 l65 -65 65 65 c71 71 78 93 40
130 -30 31 -62 32 -86 3 l-19 -21 -19 21 c-24 28 -60 27 -88 -3z"/>
</g>
</svg>
